# xmcd
#
# Track frame offsets:
# 150
# 183177
# 195139
# 200408
# 211963
# 223239
# 237863
# 250494
# 261241
# 273876
# 286874
# 298870
# 310329
# 322140
#
# Disc length: 4466 seconds
#
#
# Revision: 0
# Processed by: cddbd v1.5.2PL0 Copyright (c) Steve Scherf et al.
# Submitted via: FreeRIP 2.951 
#
DISCID=dd11700e
DTITLE=Jim Callahan - Railroad Tycoon II Gold Edition
DYEAR=1900
DGENRE=
TTITLE0=Game Data
TTITLE1=Old Flame
TTITLE2=Skippin' Harp
TTITLE3=Dark Day
TTITLE4=Humpn' Cars
TTITLE5=Cross Roads
TTITLE6=Mountain Valley Roll
TTITLE7=Chi-Town Blues
TTITLE8=Kentucky Pluck
TTITLE9=Burnin' Boogies
TTITLE10=Mississipi Chateu
TTITLE11=How Now
TTITLE12=Stranded
TTITLE13=Coal Mountain Fog
EXTD=
EXTT0=
EXTT1=
EXTT2=
EXTT3=
EXTT4=
EXTT5=
EXTT6=
EXTT7=
EXTT8=
EXTT9=
EXTT10=
EXTT11=
EXTT12=
EXTT13=
PLAYORDER=
